<svg width="14" height="14" viewBox="0 0 14 14" fill="none" xmlns="http://www.w3.org/2000/svg">
<path d="M7 0.333374C10.68 0.333374 13.6667 3.32004 13.6667 7.00004C13.6667 10.68 10.68 13.6667 7 13.6667C3.32 13.6667 0.333336 10.68 0.333336 7.00004C0.333336 3.32004 3.32 0.333374 7 0.333374ZM7 1.66671C4.05334 1.66671 1.66667 4.05337 1.66667 7.00004C1.66667 9.94671 4.05334 12.3334 7 12.3334C9.94667 12.3334 12.3333 9.94671 12.3333 7.00004C12.3333 4.05337 9.94667 1.66671 7 1.66671ZM7 3.66671C8.21334 3.66671 9.27534 4.31537 9.85867 5.28537L8.716 5.97137C8.53618 5.67154 8.28089 5.42408 7.9756 5.25367C7.67031 5.08327 7.32568 4.99587 6.97608 5.00019C6.62648 5.00452 6.28412 5.10042 5.98314 5.27832C5.68216 5.45623 5.43307 5.70993 5.26072 6.01412C5.08836 6.31832 4.99877 6.66238 5.00086 7.012C5.00295 7.36163 5.09666 7.70459 5.27263 8.0067C5.44861 8.30882 5.70072 8.55952 6.0038 8.73381C6.30689 8.9081 6.65037 8.9999 7 9.00004C7.34543 9.00027 7.68501 8.91097 7.98564 8.74085C8.28626 8.57073 8.53767 8.3256 8.71534 8.02937L9.85867 8.71471C9.48401 9.34045 8.91443 9.82602 8.23729 10.0969C7.56014 10.3679 6.81282 10.4092 6.10994 10.2145C5.40706 10.0199 4.78743 9.60005 4.3461 9.0194C3.90476 8.43876 3.66608 7.72937 3.66667 7.00004C3.66667 5.16004 5.16 3.66671 7 3.66671Z" fill="#2E2E2E"/>
</svg>
